<svg version="1.1" id="Camada_1" xmlns="http://www.w3.org/2000/svg" x="0" y="0" viewBox="0 0 1500 369.5" style="enable-background:new 0 0 1500 369.5" xml:space="preserve"><style>.st0{fill-rule:evenodd;clip-rule:evenodd;fill:#cc2131}</style><path class="st0" d="M196.2 369.5C78.6 369.5 0 286.2 0 185.1 0 84 78.8-.3 196 0h1108c117.2-.3 196 84 196 185.1s-78.6 184.4-196.2 184.4H196.2z"/><path d="M196.6 45.5c-93.1.2-150.3 62.4-150.3 139.4s56.8 139.7 150.3 139.4h1106.9c93.5.3 150.3-62.4 150.3-139.4s-57.2-139.2-150.3-139.4H196.6z" style="fill-rule:evenodd;clip-rule:evenodd;fill:#fff"/><path class="st0" d="M148.8 97.5H203l75 121.3V97.5h53.8v174H278l-75.4-121.3v121.3h-53.8v-174zm475.3 17.9h52.4v23.4h28.3V156h-28.3v115.5h-52.4V156h-28.4v-17.2h28.4v-23.4zm-262.4 40.4H414v115.7h-52.3V155.8zm-.2-58.4H414V133h-52.4V97.4zm937.9 115.3v24.5c0 18.4-10.9 26.1-21.4 26.1-10.5 0-21.4-7.6-21.4-26.1v-49c0-18.4 10.9-25.9 21.3-25.9s21.4 7.6 21.4 25.9c0 6.9 0 19.9.1 24.5zm-21-64.8c-42.2 0-76.4 29.1-76.4 65s34.2 64.9 76.4 64.9c42.3 0 76.5-29.1 76.5-64.9-.1-36-34.3-65-76.5-65zm-145.1-50.4h51.6v173.9h-51.7v-6.7c-20 12.6-42.6 12.5-60.2 4.3-4.7-2.2-35.8-17.1-35.8-57.3 0-30.6 28.8-63.9 66.5-60.6 12.4 1.1 21.2 5.6 29.6 10.3V97.5zm.3 115.5v-20.7c0-17.9-12.3-22.4-20.5-22.4-8.3 0-20.5 4.6-20.5 22.4v41.2c0 17.9 12.2 22.5 20.5 22.5 8.1 0 20.5-4.7 20.5-22.5V213zm-597.2-62.6c19.5-.5 59.3 12.3 59 58.1-.1 8.1 0 62.9 0 62.9h-52v-76c0-10.1-9.6-21.3-23.9-21.3-14.3 0-24.8 11.2-24.8 21.3l.1 76h-51.9V155.7h52s-.1 9.3 0 12.2c11.1-10.8 25.9-17 41.5-17.5zm425.2 0c19.5-.5 59.2 12.3 59 58.1-.1 8.1 0 62.9 0 62.9h-52v-76c0-10.1-9.6-21.3-23.9-21.3-14.3 0-24.9 11.2-24.9 21.3l.1 76H868V155.7h51.9s-.1 9.3 0 12.2c11.2-10.8 26.1-17 41.7-17.5zm-208.1 45.7c-.1-10.1.1-16.9 3.4-22.7 4.1-7.1 11.6-10.5 18.4-10.5 6.8 0 14.3 3.4 18.4 10.5 3.3 5.8 3.5 12.6 3.4 22.7h-43.6zm43.4 34.9v7c0 21.2-13.9 25.9-21.6 25.9-7.7 0-21.9-4.7-21.9-25.9 0-6.4.1-23.9.1-23.9H852c0-35.9-34.6-65.6-77.2-65.6-42.5 0-77 29.1-77 64.9 0 35.9 34.5 65 77 65 35.3 0 65.1-20.2 74.2-47.5l-52.1.1zm561.6-92.1h-6V99.3h15.1c9.3 0 14 3.5 14 11.3 0 7.1-4.4 10.2-10.3 10.9l11.3 17.4h-6.7l-10.5-17.2h-6.9v17.2zm7.1-22.3c5.1 0 9.6-.4 9.6-6.4 0-4.9-4.4-5.8-8.6-5.8h-8.2v12.3h7.2z"/><path class="st0" d="M1330.8 119c0-19.7 16-34.2 34.9-34.2 18.7 0 34.7 14.5 34.7 34.2 0 19.9-16 34.4-34.7 34.4-18.9 0-34.9-14.5-34.9-34.4zm34.9 28.7c15.5 0 27.8-12.2 27.8-28.7 0-16.2-12.2-28.5-27.8-28.5-15.7 0-28 12.3-28 28.5 0 16.5 12.3 28.7 28 28.7z"/></svg>